<svg version="1.2" xmlns="http://www.w3.org/2000/svg" viewBox="0 0 44 44" width="44" height="44">
	<title>back-svg</title>
	<style>
		.s0 { fill: #61714b } 
		.s1 { fill: none;stroke: #61714b } 
		.s2 { fill: #f5f3f0 } 
	</style>
	<g id="Ellipse_250">
		<path id="Layer" class="s0" d="m22 44c-12.2 0-22-9.8-22-22 0-12.2 9.8-22 22-22 12.2 0 22 9.8 22 22 0 12.2-9.8 22-22 22z"/>
		<path id="Layer" class="s1" d="m22 43.5c-11.9 0-21.5-9.6-21.5-21.5 0-11.9 9.6-21.5 21.5-21.5 11.9 0 21.5 9.6 21.5 21.5 0 11.9-9.6 21.5-21.5 21.5z"/>
	</g>
	<path id="Path_12443" class="s2" d="m12 21.6q0 0.1 0 0.2 0 0.1 0.1 0.2 0 0 0 0.1 0.1 0.1 0.1 0.1l8.3 8.8q0.1 0.1 0.3 0.2 0.2 0 0.3 0 0.2 0 0.4 0 0.2-0.1 0.3-0.2 0.1-0.1 0.2-0.3 0.1-0.2 0.1-0.3 0-0.2-0.1-0.4-0.1-0.2-0.2-0.3l-6.8-7.2h15.3q0.4 0 0.7-0.2 0.2-0.3 0.2-0.7 0-0.4-0.2-0.6-0.3-0.3-0.7-0.3h-15.3l6.8-7.2q0.1-0.1 0.2-0.3 0.1-0.1 0.1-0.3 0-0.2-0.1-0.4-0.1-0.1-0.2-0.3-0.1-0.1-0.3-0.1-0.2-0.1-0.4-0.1-0.2 0-0.3 0.1-0.2 0-0.3 0.2l-8.3 8.7q0 0.1-0.1 0.1 0 0.1 0 0.2-0.1 0.1-0.1 0.1 0 0.1 0 0.2z"/>
</svg>