<svg xmlns="http://www.w3.org/2000/svg" width="44.001" height="44.001" viewBox="0 0 44.001 44.001">
  <path id="Subtraction_65" data-name="Subtraction 65" d="M16203,12785a21.934,21.934,0,1,1,8.563-1.729A21.885,21.885,0,0,1,16203,12785Zm-8.706-22.917a.917.917,0,0,0,0,1.833h15.282l-6.775,7.162a.965.965,0,0,0,.036,1.295.862.862,0,0,0,.615.249.943.943,0,0,0,.68-.285l8.25-8.706a.817.817,0,0,0,.244-.63.953.953,0,0,0-.244-.629l-8.25-8.709a.942.942,0,0,0-.67-.284.911.911,0,0,0-.625.247.952.952,0,0,0-.036,1.295l6.775,7.162Z" transform="translate(-16180.999 -12741)" fill="#f5f3f0"/>
</svg>
