<svg xmlns="http://www.w3.org/2000/svg" width="20.895" height="23.217" viewBox="0 0 20.895 23.217">
  <path id="Path_12607" data-name="Path 12607" d="M105.48,56.682A1.677,1.677,0,1,1,103.8,55,1.677,1.677,0,0,1,105.48,56.682Zm1.608,1.161a3.484,3.484,0,0,1-6.569,0H99.16a1.161,1.161,0,0,1,0-2.322h1.359a3.484,3.484,0,0,1,6.569,0h12.967a1.161,1.161,0,0,1,0,2.322Zm8.324,9.287a3.484,3.484,0,0,0,3.284-2.322h1.359a1.161,1.161,0,1,0,0-2.322H118.7a3.484,3.484,0,0,0-6.569,0H99.16a1.161,1.161,0,1,0,0,2.322h12.967A3.484,3.484,0,0,0,115.412,67.129ZM99.16,69.451a1.161,1.161,0,0,0,0,2.322H104a3.484,3.484,0,0,0,6.57,0l.068,0h9.416a1.161,1.161,0,1,0,0-2.322h-9.416l-.068,0a3.484,3.484,0,0,0-6.57,0Zm6.449,1.161a1.677,1.677,0,1,0,1.677-1.677A1.677,1.677,0,0,0,105.609,70.612Zm9.8-5.288a1.677,1.677,0,1,0-1.677-1.677A1.677,1.677,0,0,0,115.412,65.323Z" transform="translate(74.094 -97.999) rotate(90)" fill="#61714b" fill-rule="evenodd"/>
</svg>
