<svg xmlns="http://www.w3.org/2000/svg" width="132.355" height="132.756" viewBox="0 0 132.355 132.756">
  <g id="Layer_1-2" opacity="0.207">
    <g id="Group_3022" data-name="Group 3022">
      <path id="Path_12608" data-name="Path 12608" d="M65.3,16.47A49.025,49.025,0,1,0,114.33,65.495,49.022,49.022,0,0,0,65.3,16.47M87.6,91.8c-7.091.6-14.182,1.475-21.273,2.455V76.937c-8.081,1.054-18.312,2.592-23.306,3.287V39.165c6.975-.959,13.95-1.833,20.925-2.423V43.7Q57.735,44.233,51.523,45v9.946q5.231-.648,10.462-1.138v6.954q-5.231.49-10.462,1.138V72.133c3.7-.453,10.336-1.127,14.793-1.528V53.189c6.975-.959,13.95-1.823,20.925-2.423v6.954q-6.211.537-12.422,1.317v9.946q5.231-.648,10.462-1.138V74.8q-5.231.49-10.462,1.138V86.167q6.385-.79,12.759-1.338v6.954Z" transform="translate(0.873 0.883)" fill="#fff"/>
      <path id="Path_12609" data-name="Path 12609" d="M11.892,29.787a.591.591,0,0,1-.158-.105,1.531,1.531,0,0,1-.348-2.223,1.468,1.468,0,0,1,2.107-.506,1.73,1.73,0,0,1,.706,1.57l-.032,1.117a1.216,1.216,0,0,0,.221.853l1.38-2.023.548.379L14.442,31.6a2.159,2.159,0,0,1-.927-2l.021-.948a1.189,1.189,0,0,0-.453-1.1.812.812,0,0,0-1.191.274.882.882,0,0,0,.284,1.306,1,1,0,0,0,.179.105l-.474.548Z" transform="translate(0.593 1.431)" fill="#fff"/>
      <path id="Path_12610" data-name="Path 12610" d="M17,25.559a1.029,1.029,0,0,0,1.443-.19.96.96,0,0,0-.084-1.4.947.947,0,0,0-1.412.158,1.237,1.237,0,0,0-.3.885c-.232.126-.443.232-.664.358L14.58,23.378l1.612-1.918.506.421L15.391,23.43l.811,1.148a1.346,1.346,0,0,1,.358-.969,1.5,1.5,0,0,1,2.244-.221,1.629,1.629,0,0,1,.116,2.381,1.66,1.66,0,0,1-2.213.443l.284-.664Z" transform="translate(0.782 1.151)" fill="#fff"/>
      <path id="Path_12611" data-name="Path 12611" d="M20.75,16.284l.664-.558,2.518.9-.464-2.634.632-.527.516,3.445,1.433,1.707-.548.453-1.433-1.7Z" transform="translate(1.113 0.722)" fill="#fff"/>
      <path id="Path_12612" data-name="Path 12612" d="M29.378,15.969l-2.908-4.3L29.083,9.89l.379.558-2.023,1.37.9,1.317L30.168,11.9l.379.548-1.833,1.243.885,1.317,2.023-1.37L32,14.2Z" transform="translate(1.419 0.53)" fill="#fff"/>
      <path id="Path_12613" data-name="Path 12613" d="M34.231,10.379l1.58-.832L33.925,7.9l.3,2.476Zm2.118-.358L34.315,11.1l.19,1.538-.685.358-.59-5.563.738-.379,4.246,3.635-.685.358-1.17-1.022Z" transform="translate(1.782 0.378)" fill="#fff"/>
      <g id="Group_3017" data-name="Group 3017" transform="translate(40.649 0.097)">
        <path id="Path_12614" data-name="Path 12614" d="M41.161,6.483a.9.9,0,1,0-.643-1.665l-1.022.4.643,1.654,1.022-.4ZM41.1,7.2l-.727.284.769,1.981-.674.263L38.58,4.892,40.4,4.187a1.5,1.5,0,0,1,2.044.864A1.461,1.461,0,0,1,41.8,6.884l1.939,1.58-.78.306L41.088,7.221Z" transform="translate(-38.58 0.121)" fill="#fff"/>
        <path id="Path_12615" data-name="Path 12615" d="M47.911,3.254a1.055,1.055,0,0,0-1.3-.569.907.907,0,0,0-.738,1.1.741.741,0,0,0,.843.548l.79-.042A1.5,1.5,0,0,1,49.2,5.34,1.646,1.646,0,0,1,47.869,7.3a1.8,1.8,0,0,1-2.276-.98l.6-.39a1.175,1.175,0,0,0,1.5.748c.7-.19.938-.643.811-1.085a.842.842,0,0,0-.959-.569l-.759.042a1.447,1.447,0,0,1-1.6-1.043,1.655,1.655,0,0,1,1.254-1.939,1.641,1.641,0,0,1,2.033.78l-.558.39Z" transform="translate(-38.228 0.011)" fill="#fff"/>
        <path id="Path_12616" data-name="Path 12616" d="M58.1,4.852a1.882,1.882,0,0,0,1.7-2.2,1.883,1.883,0,1,0-3.74.306A1.877,1.877,0,0,0,58.1,4.842M57.7.1a2.6,2.6,0,0,1,2.824,2.476,2.608,2.608,0,1,1-5.194.432A2.583,2.583,0,0,1,57.7.1" transform="translate(-37.683 -0.092)" fill="#fff"/>
      </g>
      <path id="Path_12617" data-name="Path 12617" d="M63.38,5.194,63.559,0,66.72.105,66.7.78,64.255.7,64.2,2.36l2.213.074-.032.674L64.17,3.034,64.1,5.215Z" transform="translate(3.398)" fill="#fff"/>
      <path id="Path_12618" data-name="Path 12618" d="M72.87,6.088,73.913,1.01,77,1.642l-.126.653-2.392-.5-.327,1.57,2.17.443-.137.664-2.17-.453L73.7,5.583l2.392.5-.137.653Z" transform="translate(3.907 0.054)" fill="#fff"/>
      <path id="Path_12619" data-name="Path 12619" d="M83.4,3.531l.716.221L80.629,8.093l-.685-.221L79.67,2.33l.727.232.19,4.552Z" transform="translate(4.272 0.125)" fill="#fff"/>
      <path id="Path_12620" data-name="Path 12620" d="M84.83,9.6,86.937,4.86l2.887,1.275-.263.611-2.234-.99L86.674,7.22l2.023.9-.274.622L86.41,7.831l-.653,1.454,2.234.99-.274.611Z" transform="translate(4.548 0.261)" fill="#fff"/>
      <path id="Path_12621" data-name="Path 12621" d="M93.221,10.693a.872.872,0,0,0,1.285-.263.9.9,0,0,0-.4-1.275l-.948-.548-.9,1.538.948.548Zm-.6.4-.674-.39-1.064,1.844-.632-.369,2.6-4.5,1.7.98a1.5,1.5,0,0,1,.6,2.139,1.455,1.455,0,0,1-1.833.643l-.021,2.508-.727-.421.042-2.434Z" transform="translate(4.839 0.412)" fill="#fff"/>
      <path id="Path_12622" data-name="Path 12622" d="M95.57,15.444l3.066-4.2,2.55,1.865-.4.537-1.97-1.433-.938,1.285L99.669,14.8l-.4.548-1.791-1.306-.938,1.285,1.97,1.433-.39.537Z" transform="translate(5.124 0.603)" fill="#fff"/>
      <g id="Group_3018" data-name="Group 3018" transform="translate(105.699 16.078)">
        <path id="Path_12623" data-name="Path 12623" d="M102.059,19.822a1.744,1.744,0,0,0,2.623-.232,1.748,1.748,0,0,0,.053-2.634l-.79-.727-2.655,2.887.78.716Zm-1.738-.738,3.519-3.825,1.338,1.233a2.419,2.419,0,0,1,.053,3.593,2.406,2.406,0,0,1-3.582.221l-1.328-1.222Z" transform="translate(-100.32 -15.26)" fill="#fff"/>
        <path id="Path_12624" data-name="Path 12624" d="M107.792,26.867l.516-.527a1.848,1.848,0,0,1-1.717-.727,2.521,2.521,0,0,1,.443-3.677,2.551,2.551,0,0,1,3.719.221,2.309,2.309,0,0,1,.284,2.771l-.632-.316a1.623,1.623,0,0,0-.158-2.023,1.861,1.861,0,0,0-2.75-.084,1.84,1.84,0,0,0-.4,2.708,1.476,1.476,0,0,0,2.076.348L108,24.18l.5-.421,1.6,1.9L108.161,27.3l-.369-.443Z" transform="translate(-100.016 -14.94)" fill="#fff"/>
      </g>
      <path id="Path_12625" data-name="Path 12625" d="M109.81,29.556l4.32-2.876,1.749,2.624-.548.369-1.359-2.023-1.328.885,1.233,1.833-.558.379L112.086,28.9l-1.328.885,1.359,2.033-.558.369Z" transform="translate(5.888 1.431)" fill="#fff"/>
      <path id="Path_12626" data-name="Path 12626" d="M4.394,68.514l.242,1.781L0,70.917l.095.738,4.636-.632L4.973,72.8l.674-.095L5.078,68.43Z" transform="translate(0 3.669)" fill="#fff"/>
      <path id="Path_12627" data-name="Path 12627" d="M.98,76.578l.179.716,2.307-.59.685,2.645-2.307.59.179.727,5.194-1.338-.179-.716-2.223.569L4.13,76.536l2.223-.58-.19-.716Z" transform="translate(0.053 4.034)" fill="#fff"/>
      <path id="Path_12628" data-name="Path 12628" d="M3.21,84.258l5-1.918,1.17,3.034-.643.242-.906-2.339-1.538.59L7.119,86l-.653.242L5.654,84.11l-1.538.59.906,2.35-.643.242Z" transform="translate(0.172 4.415)" fill="#fff"/>
      <g id="Group_3019" data-name="Group 3019" transform="translate(9.02 97.172)">
        <path id="Path_12629" data-name="Path 12629" d="M9.54,96.086a1.946,1.946,0,0,0,2.824.527,1.943,1.943,0,1,0-2.044-3.287,1.936,1.936,0,0,0-.78,2.76m4.172-2.592a2.683,2.683,0,0,1-.948,3.761A2.688,2.688,0,1,1,9.93,92.694a2.67,2.67,0,0,1,3.793.811" transform="translate(-8.561 -92.227)" fill="#fff"/>
        <path id="Path_12630" data-name="Path 12630" d="M15.984,101.144a.9.9,0,0,0,1.338.211.914.914,0,0,0,.084-1.37l-.716-.875-1.422,1.159.716.885Zm-.727.158-.506-.622-1.707,1.38-.474-.579,4.162-3.372,1.275,1.57a1.538,1.538,0,0,1-.211,2.276,1.5,1.5,0,0,1-2-.053l-.938,2.4-.537-.674.938-2.328Z" transform="translate(-8.346 -91.912)" fill="#fff"/>
      </g>
      <rect id="Rectangle_1561" data-name="Rectangle 1561" width="5.363" height="0.759" transform="translate(18.098 112.339) rotate(-44.36)" fill="#fff"/>
      <path id="Path_12631" data-name="Path 12631" d="M23.541,112.6l.432-.622a1.892,1.892,0,0,1-1.875-.432,2.592,2.592,0,0,1-.19-3.814,2.648,2.648,0,0,1,3.825-.443,2.382,2.382,0,0,1,.78,2.76l-.7-.211a1.707,1.707,0,0,0-.516-2.033,1.924,1.924,0,0,0-2.813.4,1.9,1.9,0,0,0,.063,2.824,1.527,1.527,0,0,0,2.17-.011L23.3,109.831l.432-.506,1.96,1.644L24,112.981l-.453-.379Z" transform="translate(1.135 5.719)" fill="#fff"/>
      <rect id="Rectangle_1562" data-name="Rectangle 1562" width="5.363" height="0.759" transform="translate(28.319 120.978) rotate(-55.86)" fill="#fff"/>
      <path id="Path_12632" data-name="Path 12632" d="M33.963,119.3l-.474-5.226-2.076,3.846-.653-.358,2.55-4.71.875.474.4,4.889,1.96-3.614.643.348-2.55,4.72Z" transform="translate(1.649 6.051)" fill="#fff"/>
      <path id="Path_12633" data-name="Path 12633" d="M39.867,119.552l1.717.664v-2.581l-1.717,1.907Zm1.717,1.4-2.213-.864L38.3,121.279l-.738-.284,3.93-4.225.79.306.032,5.774-.748-.295v-1.612Z" transform="translate(2.014 6.261)" fill="#fff"/>
      <path id="Path_12634" data-name="Path 12634" d="M45.33,123.794l1.37-5.184.716.19-1.2,4.509,2.444.653-.169.664Z" transform="translate(2.43 6.36)" fill="#fff"/>
      <path id="Path_12635" data-name="Path 12635" d="M55.92,125.882l3.245.284.063-.7-2.508-.211.137-1.633,2.276.19.063-.7-2.276-.19.137-1.644,2.508.211.063-.685-3.245-.274Z" transform="translate(2.998 6.463)" fill="#fff"/>
      <g id="Group_3020" data-name="Group 3020" transform="translate(65.998 126.416)">
        <path id="Path_12636" data-name="Path 12636" d="M64.621,125.56a2.036,2.036,0,0,0-.105-4.046l-1.106.032.126,4.046,1.1-.032Zm-1.812.716-.169-5.363,1.875-.063a2.686,2.686,0,0,1,.158,5.363l-1.854.063Z" transform="translate(-62.64 -119.936)" fill="#fff"/>
        <path id="Path_12637" data-name="Path 12637" d="M74.685,125.153l-.19-.738a1.9,1.9,0,0,1-1.559,1.127,2.6,2.6,0,0,1-3.013-2.35,2.637,2.637,0,0,1,2.181-3.171,2.386,2.386,0,0,1,2.6,1.222l-.622.39a1.679,1.679,0,0,0-1.875-.938,2.131,2.131,0,0,0,.643,4.183,1.518,1.518,0,0,0,1.412-1.644l-1.833.3-.105-.653,2.529-.411.421,2.592Z" transform="translate(-62.252 -119.982)" fill="#fff"/>
      </g>
      <rect id="Rectangle_1563" data-name="Rectangle 1563" width="0.759" height="5.363" transform="translate(81.459 125.394) rotate(-14.85)" fill="#fff"/>
      <path id="Path_12638" data-name="Path 12638" d="M86.549,121.7,82.3,118.623l1.538,4.1-.7.253-1.875-5.026.927-.348,3.941,2.919-1.443-3.856.7-.253,1.886,5.026Z" transform="translate(4.357 6.242)" fill="#fff"/>
      <g id="Group_3021" data-name="Group 3021" transform="translate(93.598 107.107)">
        <path id="Path_12639" data-name="Path 12639" d="M94.33,117.932l-.411-.632a1.891,1.891,0,0,1-1.106,1.57,2.589,2.589,0,0,1-3.6-1.254,2.639,2.639,0,0,1,1.033-3.709,2.386,2.386,0,0,1,2.855.316l-.464.569a1.688,1.688,0,0,0-2.076-.284,1.924,1.924,0,0,0-.685,2.76,1.9,1.9,0,0,0,2.645,1,1.511,1.511,0,0,0,.8-2.012l-1.644.875-.316-.59,2.265-1.2,1.233,2.318-.527.284Z" transform="translate(-88.835 -101.017)" fill="#fff"/>
        <path id="Path_12640" data-name="Path 12640" d="M99.435,111.407a2.661,2.661,0,0,1,.284-3.846,2.274,2.274,0,0,1,2.9-.179l-.379.622a1.592,1.592,0,0,0-2.1.084,2.123,2.123,0,0,0,2.676,3.266,1.7,1.7,0,0,0,.506-2.076l.664-.232a2.353,2.353,0,0,1-.738,2.834,2.625,2.625,0,0,1-3.825-.485" transform="translate(-88.303 -101.373)" fill="#fff"/>
        <path id="Path_12641" data-name="Path 12641" d="M108.7,105.875a1.941,1.941,0,0,0-.221-2.866,1.943,1.943,0,1,0,.221,2.866m-3.572-3.361a2.614,2.614,0,1,0,.011-.011" transform="translate(-88 -101.656)" fill="#fff"/>
      </g>
      <path id="Path_12642" data-name="Path 12642" d="M116.131,97.508l-3.414-2.4,2.371,3.9-.4.558-4.457-.917,3.424,2.4-.421.6-4.394-3.087.579-.822,4.657.959-2.487-4.067.569-.811,4.394,3.087Z" transform="translate(5.836 5.03)" fill="#fff"/>
      <path id="Path_12643" data-name="Path 12643" d="M116.735,90.583a.928.928,0,1,0-1.633-.853l-.5.948,1.633.853.5-.948Zm.095,1.254,1.939,1.011-.337.653-4.752-2.487.9-1.728a1.585,1.585,0,1,1,2.8,1.475l-.558,1.075Z" transform="translate(6.095 4.738)" fill="#fff"/>
      <path id="Path_12644" data-name="Path 12644" d="M119.61,85.865l.674-1.717H117.7Zm1.412-1.707-.864,2.213,1.191,1.075-.284.738-4.214-3.941.316-.8,5.763-.032-.3.748h-1.612Z" transform="translate(6.265 4.472)" fill="#fff"/>
      <path id="Path_12645" data-name="Path 12645" d="M124.8,76.885l-4.952,1.738,4.236,1.064-.179.716L118.71,79.1l.242-.959,4.646-1.591-3.993-1,.179-.716,5.2,1.306Z" transform="translate(6.365 4.012)" fill="#fff"/>
      <path id="Path_12646" data-name="Path 12646" d="M120.714,68.653l2.2,1.675-2.55,1.085-.116.885,3.287-1.5,2.276.284.095-.727-2.276-.284-2.813-2.265Z" transform="translate(6.447 3.636)" fill="#fff"/>
      <rect id="Rectangle_1564" data-name="Rectangle 1564" width="2.855" height="2.855" transform="matrix(0.84, -0.542, 0.542, 0.84, 3.404, 50.417)" fill="#fff"/>
      <rect id="Rectangle_1565" data-name="Rectangle 1565" width="2.855" height="2.866" transform="matrix(0.211, -0.977, 0.977, 0.211, 124.45, 51.146)" fill="#fff"/>
    </g>
  </g>
</svg>
