<svg xmlns="http://www.w3.org/2000/svg" width="230.42" height="65.228" viewBox="0 0 230.42 65.228">
  <g id="Group_2962" data-name="Group 2962" opacity="0.242">
    <path id="Path_12426" data-name="Path 12426" d="M20.016,38.891V12.109c-1.7-.233-3.429-.513-5.132-.793-1.61,4.293-3.2,8.562-4.806,12.808Q7.664,16.81,5.249,9.38,2.695,8.785.14,8.12V34.9c1.773.467,3.523.91,5.3,1.306V21.534c.956,3.173,1.936,6.345,2.893,9.495,1.166.257,2.356.49,3.523.7.956-2.776,1.936-5.552,2.893-8.328V38.074c1.773.3,3.523.583,5.3.817" transform="translate(0.187 10.823)" fill="#fff"/>
    <path id="Path_12427" data-name="Path 12427" d="M36.74,10.03V36.812c1.843-.21,3.709-.4,5.552-.63V9.4l-5.552.63" transform="translate(48.971 12.529)" fill="#fff"/>
    <path id="Path_12428" data-name="Path 12428" d="M52.228,35.762l5.249-.7V8.28c-1.726.233-3.453.467-5.179.677V24.68c-1.983-4.969-3.943-9.961-5.926-14.954l-5.552.7V37.208c1.726-.21,3.453-.42,5.179-.653V20.528q3.114,7.629,6.229,15.21" transform="translate(54.409 11.036)" fill="#fff"/>
    <path id="Path_12429" data-name="Path 12429" d="M19.738,17.9c.723,3.359,1.446,6.7,2.17,10.055-1.446-.093-2.869-.187-4.316-.327.723-3.243,1.423-6.485,2.146-9.728m3.1,14.487c.373,1.726.747,3.453,1.12,5.156,1.983.117,3.966.187,5.972.233Q25.979,24.264,22.048,10.64c-1.54-.093-3.1-.21-4.642-.35Q13.451,23.343,9.52,36.232c2.006.257,4.013.49,6,.677.373-1.656.723-3.336,1.1-4.992,2.076.187,4.153.35,6.229.467" transform="translate(12.689 13.715)" fill="#fff"/>
    <path id="Path_12430" data-name="Path 12430" d="M24.232,15.1h1.68c2.706.047,3.1.63,3.1,4.9v8.025c0,4.269-.42,4.9-3.1,4.992h-1.68V15.079M34.59,28.82V18.835c.117-6.252-2.333-8.375-8.935-8.188-2.333,0-4.642,0-6.975-.047V37.382c2.333.047,4.642.07,6.975.047,6.6.047,9.052-2.4,8.935-8.608" transform="translate(24.898 14.129)" fill="#fff"/>
    <path id="Path_12431" data-name="Path 12431" d="M40.647,14.6V10.05c-4.549.4-9.1.747-13.647.98V37.811c4.619-.233,9.262-.583,13.881-.98V32.283c-2.776.257-5.552.467-8.328.653V26.264c2.286-.163,4.549-.327,6.835-.537V21.178c-2.286.187-4.549.373-6.835.537V15.229c2.706-.187,5.412-.4,8.1-.63" transform="translate(35.988 13.395)" fill="#fff"/>
    <path id="Path_12432" data-name="Path 12432" d="M102.6,35.6c1.75.4,3.5.84,5.249,1.306V10.123c-1.726-.467-3.453-.886-5.179-1.283V24.563C100.685,18.871,98.725,13.2,96.742,7.58,94.9,7.23,93.033,6.9,91.19,6.6V33.382q2.589.42,5.179.91V18.264C98.445,24,100.522,29.766,102.6,35.6" transform="translate(121.547 8.797)" fill="#fff"/>
    <path id="Path_12433" data-name="Path 12433" d="M72.05,5.922v4.549c1.586-.07,3.173-.14,4.759-.187V32.541c1.843-.047,3.709-.093,5.552-.117V10.145h4.759V5.6c-5.016-.047-10.055.07-15.07.3" transform="translate(96.035 7.445)" fill="#fff"/>
    <path id="Path_12434" data-name="Path 12434" d="M59.705,29.795c-.63.07-1.283.163-1.913.233V23.053l2.1-.28c2.053-.257,2.66.443,2.66,3.219,0,2.66-.63,3.5-2.846,3.779M57.792,12.088c.63-.07,1.26-.163,1.866-.233,1.913-.233,2.543.513,2.543,3.009,0,2.286-.723,3.266-2.543,3.5-.63.07-1.26.163-1.866.233V12.065Zm9.985,1.68c0-2.426-.677-4.456-1.843-5.482-1.236-1.05-2.823-1.306-5.856-.933-2.613.327-5.226.677-7.838,1.026V35.161c2.986-.4,5.949-.77,8.935-1.143,2.543-.327,3.826-.84,4.946-2.03A8.958,8.958,0,0,0,68.1,25.782c0-3.383-.793-5.412-2.52-6.3,1.493-1.073,2.17-2.846,2.17-5.692" transform="translate(69.63 9.584)" fill="#fff"/>
    <path id="Path_12435" data-name="Path 12435" d="M87.11,6.083V32.865c1.843.187,3.709.42,5.552.677V6.737c-1.843-.257-3.709-.467-5.552-.677" transform="translate(116.108 8.077)" fill="#fff"/>
    <path id="Path_12436" data-name="Path 12436" d="M88.165,13.162l2.17,10.008c-1.446-.093-2.869-.163-4.316-.21.723-3.266,1.423-6.555,2.146-9.821m-4.2,19.223c.373-1.68.723-3.383,1.1-5.062,2.076.07,4.153.163,6.229.3l1.12,5.179c1.983.14,3.966.3,5.972.513Q94.429,19.507,90.5,5.883c-1.54-.093-3.1-.163-4.642-.233Q81.9,18.878,77.97,32.268c2.006,0,4.013.047,6,.093" transform="translate(103.926 7.531)" fill="#fff"/>
    <path id="Path_12437" data-name="Path 12437" d="M69.625,17.278c-.443.607-.98.84-2.216.956-.537.047-1.05.117-1.586.163V11.049c.56-.047,1.12-.117,1.68-.163,2.146-.21,2.823.677,2.823,3.523a4.905,4.905,0,0,1-.723,2.869m6.275-3.663c0-3.009-.537-4.806-1.843-6C72.751,6.407,71.188,6.1,67.759,6.43c-2.45.233-4.9.513-7.349.77V33.982c1.843-.21,3.709-.4,5.552-.607V22.62c.327-.023.677-.07,1-.093q1.855,5.179,3.709,10.4c2.053-.187,4.106-.373,6.159-.537q-2.24-5.424-4.456-10.8c2.659-1.446,3.5-3.266,3.5-7.979" transform="translate(80.52 8.407)" fill="#fff"/>
    <path id="Path_12438" data-name="Path 12438" d="M68.57,6.13V32.912c1.843-.14,3.709-.257,5.552-.35V5.78c-1.843.093-3.709.21-5.552.35" transform="translate(91.396 7.704)" fill="#fff"/>
    <path id="Path_12439" data-name="Path 12439" d="M0,5.832v5.552c76.8,20.2,153.621-20.2,230.42,0V5.832c-76.8-20.2-153.621,20.2-230.42,0" transform="translate(0 0)" fill="#fff"/>
    <path id="Path_12440" data-name="Path 12440" d="M0,26.414v5.552c76.8,20.2,153.621-20.2,230.42,0V26.414c-76.8-20.2-153.621,20.18-230.42,0" transform="translate(0 27.43)" fill="#fff"/>
  </g>
</svg>
