<svg xmlns="http://www.w3.org/2000/svg" width="158.29" height="158.29" viewBox="0 0 158.29 158.29">
  <g id="Group_3024" data-name="Group 3024" transform="translate(-1029.232 -719.702)">
    <circle id="Ellipse_340" data-name="Ellipse 340" cx="79.145" cy="79.145" r="79.145" transform="translate(1029.232 719.702)" fill="#5d7246"/>
    <path id="Path_12522" data-name="Path 12522" d="M34.606,69.247a3.532,3.532,0,0,0,2.267-.876L68.2,38.694a3.317,3.317,0,0,0,.129-4.662,3.427,3.427,0,0,0-4.662-.129L37.9,58.272V3.3a3.3,3.3,0,0,0-6.594,0V58.272L5.548,33.9a3.471,3.471,0,0,0-4.662.129,3.343,3.343,0,0,0,.129,4.662L32.34,68.371a3.016,3.016,0,0,0,2.267.876Z" transform="translate(1073.759 833.459) rotate(-90)" fill="#f5f3f0"/>
  </g>
</svg>
