<svg version="1.2" xmlns="http://www.w3.org/2000/svg" viewBox="0 0 159 159" width="159" height="159">
	<title>grouped-dropdown-arrow-svg</title>
	<style>
		.s0 { fill: #5d7246 } 
		.s1 { fill: #f5f3f0 } 
	</style>
	<g id="Group_3024">
		<path id="Ellipse_340" class="s0" d="m0.7 79.1c0-43.7 35.4-79.1 79.2-79.1 43.7 0 79.1 35.4 79.1 79.1 0 43.8-35.4 79.2-79.1 79.2-43.8 0-79.2-35.4-79.2-79.2z"/>
		<path id="Path_12522" class="s1" d="m79.8 113.8q0.4 0 0.7-0.1 0.3-0.1 0.6-0.2 0.3-0.1 0.5-0.2 0.3-0.2 0.5-0.4l31.3-29.7q0.5-0.4 0.8-1 0.2-0.6 0.3-1.3 0-0.6-0.2-1.3-0.3-0.6-0.7-1-0.5-0.5-1.1-0.7-0.6-0.3-1.2-0.3-0.7 0-1.3 0.2-0.6 0.2-1.1 0.6l-25.8 24.4v-55c0-0.8-0.4-1.6-1-2.2-0.6-0.6-1.4-0.9-2.3-0.9-0.8 0-1.6 0.3-2.2 0.9-0.7 0.6-1 1.4-1.1 2.2v55l-25.7-24.4q-0.5-0.4-1.1-0.6-0.6-0.2-1.3-0.2-0.6 0-1.2 0.3-0.6 0.2-1.1 0.7-0.4 0.4-0.6 1-0.3 0.7-0.3 1.3 0.1 0.7 0.3 1.3 0.3 0.6 0.8 1l31.3 29.7q0.2 0.2 0.5 0.4 0.2 0.2 0.5 0.3 0.3 0.1 0.6 0.1 0.3 0.1 0.6 0.1z"/>
	</g>
</svg>