<svg xmlns="http://www.w3.org/2000/svg" width="20.516" height="14.185" viewBox="0 0 20.516 14.185">
  <g id="Group_2850" data-name="Group 2850" transform="translate(-9708 3902)">
    <path id="Path_12391" data-name="Path 12391" d="M70.452,106.54A1.982,1.982,0,0,0,70,107.8v10.189a2,2,0,0,0,.942,1.691l6.342-6.925Z" transform="translate(9638 -4007.802)" fill="#f5f3f0"/>
    <path id="Path_12392" data-name="Path 12392" d="M438.546,119.7a2,2,0,0,0,.962-1.7V107.806a1.982,1.982,0,0,0-.452-1.26l-6.792,6.179Z" transform="translate(9289.008 -4007.808)" fill="#f5f3f0"/>
    <path id="Path_12393" data-name="Path 12393" d="M120.719,288.38l-.024.019-.011.008-.014.009-.011.006-.015.008-.011,0-.017.006-.011,0-.018,0-.01,0-.021,0s-.006-.007-.008-.007-.019-.006-.029-.006-.019.007-.029.006-.006,0-.008,0h-.031a.062.062,0,0,1-.018,0l-.011,0-.017-.006-.011,0-.016-.008-.011-.006-.014-.009-.011-.008-.014-.011-.01-.008-2.328-2.118-6.2,6.772h0a1.973,1.973,0,0,0,.462.054h16.529a1.992,1.992,0,0,0,.441-.052l-6.136-6.812Z" transform="translate(9597.738 -4180.906)" fill="#f5f3f0"/>
    <path id="Path_12394" data-name="Path 12394" d="M113.29,86.737a1.98,1.98,0,0,0-1.093-.331H95.669a1.979,1.979,0,0,0-1.093.331l9.357,8.513Z" transform="translate(9614.324 -3988.406)" fill="#f5f3f0"/>
  </g>
</svg>
