<svg id="Layer_1-2" xmlns="http://www.w3.org/2000/svg" width="187.933" height="34.031" viewBox="0 0 187.933 34.031">
  <g id="Group_2789" data-name="Group 2789">
    <path id="Path_12199" data-name="Path 12199" d="M0,1.31V34.382H17.136V28.776H6.854V20.533h8.434V14.927H6.854V6.916H16.86V1.31Z" transform="translate(0 -0.386)" fill="#5d7246"/>
    <path id="Path_12200" data-name="Path 12200" d="M43.587,1.31l-4.908,22.6L33.764,1.31H26.91l8.709,33.072H41.69L50.4,1.31Z" transform="translate(-7.934 -0.386)" fill="#5d7246"/>
    <path id="Path_12201" data-name="Path 12201" d="M62.98,1.31V34.382H80.123V28.776H69.834V20.533h8.434V14.927H69.834V6.916H79.84V1.31Z" transform="translate(-18.569 -0.386)" fill="#5d7246"/>
    <path id="Path_12202" data-name="Path 12202" d="M100.8,15.858c1.53,0,2.179-.233,2.729-.931a5.867,5.867,0,0,0,.881-3.476c0-3.526-.832-4.682-3.476-4.682H98.844V15.85h1.946ZM99.034,34.382H92.18V1.31h9.075c4.217,0,6.163.557,7.736,2.179,1.622,1.622,2.271,3.893,2.271,7.6,0,5.832-1.022,8.011-4.309,9.492l5.514,13.807h-7.595L100.289,21.1H99.041V34.389Z" transform="translate(-27.178 -0.386)" fill="#5d7246"/>
    <path id="Path_12203" data-name="Path 12203" d="M123.75,1.31V34.382h17.135V28.776H130.6V20.533h8.427V14.927H130.6V6.916H140.61V1.31Z" transform="translate(-36.486 -0.386)" fill="#5d7246"/>
    <g id="Group_2788" data-name="Group 2788" transform="translate(107.65)">
      <path id="Path_12204" data-name="Path 12204" d="M161.594,28.905c3.335-.092,3.843-.832,3.843-6.114V12.877c0-5.282-.508-6.022-3.843-6.121h-2.087V28.9h2.087ZM152.66,1.3h8.617c8.152-.141,11.163,2.687,11.022,10.373V23.99c.141,7.693-2.87,10.514-11.022,10.373H152.66Z" transform="translate(-152.66 -0.381)" fill="#5d7246"/>
      <path id="Path_12205" data-name="Path 12205" d="M194.564,15.055h9.915v5.7c0,4.816-.465,7.411-1.622,9.308C201.193,32.748,198.548,34,194.43,34c-3.843,0-6.671-1.156-8.335-3.476-1.3-1.763-1.805-4.259-1.805-8.568V12.037c0-4.725.6-7.32,2.221-9.125C188.225.973,190.77,0,194.3,0c4.034,0,6.763,1.389,8.293,4.259.79,1.431,1.114,3.1,1.206,5.881H197.54c-.324-3.66-.973-4.633-3.053-4.633-2.637,0-3.335,1.481-3.335,7.045v8.892a17.914,17.914,0,0,0,.465,5.049,2.786,2.786,0,0,0,2.87,1.989c2.5,0,3.244-1.481,3.244-6.255V20.281h-3.152V15.048Z" transform="translate(-161.986)" fill="#5d7246"/>
    </g>
    <path id="Path_12206" data-name="Path 12206" d="M216.5,1.31V34.382h17.143V28.776H223.354V20.533h8.434V14.927h-8.434V6.916H233.36V1.31Z" transform="translate(-63.832 -0.386)" fill="#5d7246"/>
    <path id="Path_12207" data-name="Path 12207" d="M254.373,42.059h.557a.069.069,0,0,0,.078-.078V39.789c0-.049.007-.063.063-.063.282,0,.564.007.846.014a1.031,1.031,0,0,1,.3.028.88.88,0,0,1,.515.331,8.108,8.108,0,0,1,.5.684c.268.409.529.818.79,1.234a.077.077,0,0,0,.071.049c.254,0,.5,0,.755-.007h.063a.62.62,0,0,0-.042-.071c-.331-.515-.663-1.03-1-1.537a2.036,2.036,0,0,0-.769-.719c-.014,0-.021-.014-.049-.035a.574.574,0,0,1,.063-.014c.134-.035.275-.063.4-.106a1.4,1.4,0,0,0,.663-.416,1.379,1.379,0,0,0,.282-1.227,1.239,1.239,0,0,0-.973-1.022,3.045,3.045,0,0,0-.67-.071l-2.426-.021c-.078,0-.078,0-.078.078V42q0,.063.071.063m.628-4.6v-.063h.374c.522,0,1.051,0,1.573.021a.83.83,0,0,1,.169,1.643,3.432,3.432,0,0,1-.712.063c-.451,0-.9,0-1.347.007-.056,0-.063-.014-.063-.071V37.462" transform="translate(-74.98 -10.856)" fill="#5d7246"/>
    <path id="Path_12208" data-name="Path 12208" d="M249.366,38.251l2.785-4.823h5.571l2.785,4.823-2.785,4.823h-5.571Zm2.426-5.451-3.152,5.451,3.152,5.451h6.3l3.152-5.451L258.089,32.8Z" transform="translate(-73.308 -9.671)" fill="#5d7246"/>
  </g>
</svg>
