<svg xmlns="http://www.w3.org/2000/svg" width="21.542" height="21.62" viewBox="0 0 21.542 21.62">
  <path id="Path_12396" data-name="Path 12396" d="M111.528,43.176a1.5,1.5,0,0,1-.818-.265,16.858,16.858,0,0,1-5.94-5.844,1.93,1.93,0,0,1-.409-1.371c.168-.914,1.323-1.275,1.659-2.14a2.39,2.39,0,0,0-.577-2.236,10.3,10.3,0,0,0-2.958-2.718,4.123,4.123,0,0,0-1.8-.673c-2.91-.144-3.078,4.714-2.693,6.613A15.13,15.13,0,0,0,100.538,40,22.916,22.916,0,0,0,111.5,48.875a8.906,8.906,0,0,0,4.93.505A4.18,4.18,0,0,0,118.6,48.2a2.7,2.7,0,0,0,.745-2.285,4.247,4.247,0,0,0-1.3-2.116,17.166,17.166,0,0,0-2.79-2.309,1.488,1.488,0,0,0-.6-.265,1.179,1.179,0,0,0-.673.216,8.2,8.2,0,0,0-1.635,1.2,1.487,1.487,0,0,1-.745.481c-.024.024-.048.048-.072.048Z" transform="translate(-97.837 -27.926)" fill="#f5f3f0"/>
</svg>
