<svg xmlns="http://www.w3.org/2000/svg" width="15.405" height="15.389" viewBox="0 0 15.405 15.389">
  <path id="Path_12469" data-name="Path 12469" d="M207.992,137.5l-3.09-3.064a6.8,6.8,0,0,0-.367-9.244,6.7,6.7,0,0,0-4.792-1.99,6.809,6.809,0,1,0,0,13.617,6.733,6.733,0,0,0,4.426-1.65l3.09,3.09a.5.5,0,0,0,.34.131.517.517,0,0,0,.367-.157.53.53,0,0,0,.026-.733Zm-12.334-3.43a5.64,5.64,0,0,1-1.676-4.059,5.855,5.855,0,0,1,1.676-4.085,5.7,5.7,0,0,1,4.085-1.676,5.761,5.761,0,1,1-4.085,9.82Z" transform="translate(-192.821 -123.098)" fill="#5d7246" stroke="#586d42" stroke-width="0.2"/>
</svg>
