<svg id="Layer_1-2" xmlns="http://www.w3.org/2000/svg" width="266.51" height="48.26" viewBox="0 0 266.51 48.26">
  <g id="Group_2789" data-name="Group 2789">
    <path id="Path_12199" data-name="Path 12199" d="M0,1.31v46.9H24.3V40.26H9.72V28.57H21.68V20.62H9.72V9.26H23.91V1.31Z" fill="#ffffff"/>
    <path id="Path_12200" data-name="Path 12200" d="M50.56,1.31,43.6,33.36,36.63,1.31H26.91l12.35,46.9h8.61L60.22,1.31Z" fill="#ffffff"/>
    <path id="Path_12201" data-name="Path 12201" d="M62.98,1.31v46.9H87.29V40.26H72.7V28.57H84.66V20.62H72.7V9.26H86.89V1.31Z" fill="#ffffff"/>
    <path id="Path_12202" data-name="Path 12202" d="M104.4,21.94c2.17,0,3.09-.33,3.87-1.32a8.32,8.32,0,0,0,1.25-4.93c0-5-1.18-6.64-4.93-6.64h-2.96V21.93h2.76Zm-2.5,26.27H92.18V1.31h12.87c5.98,0,8.74.79,10.97,3.09,2.3,2.3,3.22,5.52,3.22,10.78,0,8.27-1.45,11.36-6.11,13.46l7.82,19.58H110.18l-6.5-18.85h-1.77V48.22Z" fill="#ffffff"/>
    <path id="Path_12203" data-name="Path 12203" d="M123.75,1.31v46.9h24.3V40.26H133.47V28.57h11.95V20.62H133.47V9.26h14.19V1.31Z" fill="#ffffff"/>
    <g id="Group_2788" data-name="Group 2788">
      <path id="Path_12204" data-name="Path 12204" d="M165.33,40.45c4.73-.13,5.45-1.18,5.45-8.67V17.72c0-7.49-.72-8.54-5.45-8.68h-2.96v31.4h2.96ZM152.66,1.3h12.22c11.56-.2,15.83,3.81,15.63,14.71V33.48c.2,10.91-4.07,14.91-15.63,14.71H152.66Z" fill="#ffffff"/>
      <path id="Path_12205" data-name="Path 12205" d="M198.86,21.35h14.06v8.08c0,6.83-.66,10.51-2.3,13.2-2.36,3.81-6.11,5.58-11.95,5.58-5.45,0-9.46-1.64-11.82-4.93-1.84-2.5-2.56-6.04-2.56-12.15V17.07c0-6.7.85-10.38,3.15-12.94C189.87,1.38,193.48,0,198.48,0c5.72,0,9.59,1.97,11.76,6.04,1.12,2.03,1.58,4.4,1.71,8.34h-8.87c-.46-5.19-1.38-6.57-4.33-6.57-3.74,0-4.73,2.1-4.73,9.99V30.41a25.4,25.4,0,0,0,.66,7.16,3.951,3.951,0,0,0,4.07,2.82c3.55,0,4.6-2.1,4.6-8.87V28.76h-4.47V21.34Z" fill="#ffffff"/>
    </g>
    <path id="Path_12206" data-name="Path 12206" d="M216.5,1.31v46.9h24.31V40.26H226.22V28.57h11.96V20.62H226.22V9.26h14.19V1.31Z" fill="#ffffff"/>
    <path id="Path_12207" data-name="Path 12207" d="M254.4,44.25h.79a.1.1,0,0,0,.11-.11V41.03c0-.07.01-.09.09-.09.4,0,.8.01,1.2.02a1.463,1.463,0,0,1,.42.04,1.248,1.248,0,0,1,.73.47,11.5,11.5,0,0,1,.71.97c.38.58.75,1.16,1.12,1.75a.109.109,0,0,0,.1.07c.36,0,.71,0,1.07-.01h.09a.879.879,0,0,0-.06-.1c-.47-.73-.94-1.46-1.42-2.18a2.887,2.887,0,0,0-1.09-1.02c-.02,0-.03-.02-.07-.05a.815.815,0,0,1,.09-.02c.19-.05.39-.09.57-.15a1.986,1.986,0,0,0,.94-.59,1.956,1.956,0,0,0,.4-1.74,1.757,1.757,0,0,0-1.38-1.45,4.318,4.318,0,0,0-.95-.1l-3.44-.03c-.11,0-.11,0-.11.11v7.24q0,.09.1.09m.89-6.52v-.09h.53c.74,0,1.49,0,2.23.03a1.177,1.177,0,0,1,.24,2.33,4.867,4.867,0,0,1-1.01.09c-.64,0-1.27,0-1.91.01-.08,0-.09-.02-.09-.1V37.73" fill="#ffffff"/>
    <path id="Path_12208" data-name="Path 12208" d="M249.67,40.53l3.95-6.84h7.9l3.95,6.84-3.95,6.84h-7.9Zm3.44-7.73-4.47,7.73,4.47,7.73h8.93l4.47-7.73-4.47-7.73h-8.93Z" fill="#ffffff"/>
  </g>
</svg>
