<svg xmlns="http://www.w3.org/2000/svg" width="21.003" height="17.068" viewBox="0 0 21.003 17.068">
  <g id="twitter_1_" data-name="twitter (1)" transform="translate(0 0)">
    <path id="Path_11" data-name="Path 11" d="M21,49.976a8.616,8.616,0,0,1-2.475.678,4.322,4.322,0,0,0,1.895-2.384,8.626,8.626,0,0,1-2.736,1.046,4.313,4.313,0,0,0-7.343,3.93,12.233,12.233,0,0,1-8.881-4.5A4.314,4.314,0,0,0,2.8,54.5a4.291,4.291,0,0,1-1.952-.539c0,.018,0,.036,0,.054A4.312,4.312,0,0,0,4.3,58.238a4.313,4.313,0,0,1-1.946.074A4.313,4.313,0,0,0,6.38,61.3a8.645,8.645,0,0,1-5.352,1.845A8.722,8.722,0,0,1,0,63.088a12.2,12.2,0,0,0,6.605,1.936,12.176,12.176,0,0,0,12.26-12.26q0-.28-.013-.557A8.754,8.754,0,0,0,21,49.976Z" transform="translate(-0.001 -47.956)" fill="#f5f3f0"/>
  </g>
</svg>
