<svg version="1.2" xmlns="http://www.w3.org/2000/svg" viewBox="0 0 26 23" width="26" height="23">
	<title>Group 2851-svg</title>
	<style>
		.s0 { fill: #f5f3f0 } 
	</style>
	<g id="Group_2851">
		<g id="Group_2856">
			<g id="Group_2851-2">
				<g id="instagram-logo_1_">
					<path id="Path_8" fill-rule="evenodd" class="s0" d="m-125.7 0.5q1.1 0.4 2 1.3 0.8 0.8 1.3 2 0.4 1.1 0.4 2.3v9.9q0 1.2-0.4 2.3-0.5 1.1-1.3 2-0.9 0.8-2 1.3-1.1 0.4-2.3 0.4l-9.9 0.1q-1.2-0.1-2.3-0.5-1.2-0.5-2-1.3-0.9-0.9-1.3-2-0.5-1.1-0.5-2.3v-9.9q0-1.2 0.5-2.3 0.4-1.2 1.3-2 0.8-0.9 2-1.3 1.1-0.5 2.3-0.5h9.9q1.2 0 2.3 0.5zm1.8 5.6q0-0.8-0.3-1.6-0.3-0.8-0.9-1.3-0.6-0.6-1.4-0.9-0.7-0.3-1.5-0.3h-9.9q-0.8 0-1.6 0.3-0.8 0.3-1.3 0.9-0.6 0.5-0.9 1.3-0.3 0.8-0.3 1.6v9.9q0 0.8 0.3 1.5 0.3 0.8 0.9 1.4 0.5 0.6 1.3 0.9 0.8 0.3 1.6 0.3h9.9q0.8 0 1.5-0.3 0.8-0.3 1.4-0.9 0.6-0.6 0.9-1.4 0.3-0.7 0.3-1.5c0 0 0-9.9 0-9.9z"/>
					<path id="Path_9" fill-rule="evenodd" class="s0" d="m-130.8 5.8q1 0.4 1.8 1.2 0.8 0.8 1.3 1.9 0.4 1 0.4 2.1c0 2.3-1.4 4.4-3.5 5.3-2.1 0.9-4.6 0.4-6.2-1.3-1.6-1.6-2.1-4-1.2-6.1 0.9-2.2 2.9-3.6 5.2-3.6q1.2 0 2.2 0.5zm-0.7 8.7q0.6-0.3 1.2-0.8 0.5-0.6 0.8-1.2 0.2-0.7 0.3-1.5c0-1.5-1-2.8-2.3-3.4-1.4-0.6-3-0.3-4.1 0.8-1.1 1.1-1.4 2.7-0.8 4.1 0.6 1.3 1.9 2.3 3.4 2.3q0.8-0.1 1.5-0.3z"/>
					<path id="Path_10" class="s0" d="m-127.1 3.7c-0.6 0-1.2 0.5-1.4 1.1-0.1 0.7 0.3 1.4 0.9 1.6 0.6 0.3 1.4 0.1 1.7-0.5 0.4-0.6 0.3-1.3-0.1-1.8q-0.1-0.1-0.3-0.2-0.1-0.1-0.2-0.1-0.1-0.1-0.3-0.1-0.1 0-0.3 0z"/>
				</g>
			</g>
			<g id="Group_2852">
				<path id="noun-youtube-3451621" fill-rule="evenodd" class="s0" d="m25.3 6.4v8.2c0 2.3-1.7 4.1-4.4 4.6q-1.8 0.3-3.6 0.5-1.8 0.1-3.6 0.1-1.8 0-3.6-0.1-1.8-0.2-3.6-0.5c-2.8-0.6-4.5-2.3-4.5-4.6v-8.2c0-2.3 1.7-4 4.4-4.6q1.8-0.3 3.6-0.5 1.8-0.1 3.6-0.1 1.8 0 3.6 0.1 1.8 0.2 3.6 0.5c2.8 0.5 4.5 2.3 4.5 4.6zm-7.8 4.6q0.1-0.1 0.2-0.2 0-0.1 0-0.3 0-0.1 0-0.3-0.1-0.1-0.2-0.2l-5.9-3.5q0 0-0.1 0-0.1-0.1-0.2-0.1 0 0-0.1 0.1-0.1 0-0.2 0 0 0.1-0.1 0.1 0 0.1-0.1 0.1 0 0.1 0 0.2-0.1 0.1-0.1 0.1v7q0 0.1 0.1 0.2 0 0.1 0 0.1 0.1 0.1 0.1 0.2 0.1 0 0.1 0.1 0.1 0 0.1 0 0 0 0.1 0 0 0 0 0 0.1 0 0.1 0 0.1 0 0.1 0 0 0 0.1 0 0 0 0.1 0 0 0 0-0.1l5.8-3.5z"/>
			</g>
			<g id="Group_2853">
				<g id="facebook-letter-logo_1_">
					<path id="Facebook" class="s0" d="m-100.4 4.8v2.6h-1.9v3.2h1.9v9.4h3.9v-9.4h2.7c0 0 0.2-1.5 0.3-3.2h-2.9v-2.1q0-0.2 0.1-0.3 0-0.2 0.1-0.3 0.2-0.1 0.3-0.1 0.1-0.1 0.3-0.1h2.1v-3.3h-2.9c-4 0-4 3.2-4 3.6z"/>
				</g>
			</g>
			<g id="Group_2854">
				<g id="twitter_1_">
					<path id="Path_11" class="s0" d="m-52.8 4.4q-0.3 0.1-0.6 0.3-0.3 0.1-0.6 0.1-0.3 0.1-0.6 0.2-0.3 0.1-0.7 0.1 0.4-0.2 0.7-0.5 0.3-0.2 0.5-0.5 0.3-0.3 0.4-0.7 0.2-0.3 0.3-0.7-0.3 0.2-0.6 0.4-0.3 0.1-0.7 0.2-0.3 0.2-0.7 0.3-0.3 0.1-0.7 0.2c-0.6-0.7-1.5-1.2-2.4-1.3-1-0.2-1.9 0-2.8 0.4-0.8 0.5-1.5 1.2-1.9 2-0.4 0.9-0.5 1.9-0.2 2.8q-1.3-0.1-2.6-0.4-1.2-0.3-2.4-0.9-1.1-0.6-2.1-1.4-1-0.8-1.8-1.8-0.4 0.7-0.6 1.5-0.1 0.8 0.1 1.6 0.2 0.8 0.7 1.5 0.4 0.7 1.1 1.1-0.2 0-0.5 0-0.2 0-0.5-0.1-0.2-0.1-0.5-0.2-0.2-0.1-0.4-0.2 0 0 0 0.1 0 0.7 0.2 1.4 0.3 0.7 0.7 1.3 0.5 0.6 1.2 0.9 0.6 0.4 1.3 0.6-0.2 0-0.5 0.1-0.2 0-0.4 0-0.3 0-0.5 0-0.3 0-0.5 0 0.2 0.6 0.6 1.1 0.4 0.6 0.9 1 0.6 0.4 1.2 0.6 0.6 0.2 1.3 0.2-0.6 0.5-1.2 0.8-0.6 0.4-1.3 0.6-0.7 0.2-1.4 0.4-0.7 0.1-1.4 0.1-0.2 0-0.3 0-0.1 0-0.3 0-0.1 0-0.2 0-0.1-0.1-0.3-0.1 0.8 0.5 1.6 0.9 0.7 0.3 1.6 0.6 0.8 0.2 1.7 0.3 0.9 0.2 1.7 0.2c1.6 0 3.2-0.3 4.7-0.9 1.5-0.7 2.9-1.6 4-2.7 1.2-1.1 2.1-2.5 2.7-4 0.6-1.5 0.9-3.1 0.9-4.7q0-0.3 0-0.6 0.3-0.2 0.6-0.4 0.3-0.3 0.5-0.6 0.3-0.3 0.6-0.6 0.2-0.3 0.4-0.6z"/>
				</g>
			</g>
			<g id="Group_2855">
				<g id="linkedin-logo">
					<path id="LinkedIn" fill-rule="evenodd" class="s0" d="m-13.5 11.5v7.2h-4.2v-6.7c0-1.7-0.6-2.9-2.1-2.9q-0.4 0-0.7 0.1-0.4 0.1-0.6 0.3-0.3 0.2-0.5 0.5-0.3 0.3-0.4 0.6 0 0.2 0 0.3-0.1 0.1-0.1 0.2 0 0.2 0 0.3 0 0.1 0 0.3v7h-4.2c0 0 0-11.4 0-12.6h4.2v1.8q0 0 0 0 0.3-0.5 0.7-0.9 0.4-0.4 0.9-0.7 0.5-0.3 1-0.4 0.6-0.1 1.2-0.1c2.7 0 4.8 1.8 4.8 5.7zm-15.5-10.9c0.4 0.4 0.6 1 0.6 1.6 0 0.6-0.2 1.2-0.7 1.6-0.4 0.4-1 0.6-1.6 0.6h-0.1c-0.6 0-1.2-0.2-1.6-0.6-0.4-0.5-0.7-1-0.7-1.6 0-0.7 0.3-1.2 0.7-1.6 0.5-0.5 1.1-0.7 1.7-0.6 0.6 0 1.2 0.2 1.7 0.6zm-3.8 5.5h4.2v12.6h-4.2z"/>
				</g>
			</g>
		</g>
	</g>
</svg>